<?xml version="1.0" encoding="UTF-8"?>
<svg version="1.1" xmlns="http://www.w3.org/2000/svg" width="447" height="447">
<path d="M0 0 C0.93205261 0.00337372 1.86410522 0.00674744 2.82440186 0.01022339 C50.32090871 0.25799688 97.0024711 15.27411941 134.8125 44.4375 C135.7715625 45.16710938 136.730625 45.89671875 137.71875 46.6484375 C143.66853119 51.29440861 149.31480628 56.26723125 154.8125 61.4375 C155.37098633 61.9619873 155.92947266 62.48647461 156.50488281 63.02685547 C166.40277003 72.40029842 174.88481186 82.35848245 182.8125 93.4375 C183.24868652 94.03433594 183.68487305 94.63117188 184.13427734 95.24609375 C200.25159771 117.41447825 211.3784584 143.17125908 218.1875 169.625 C218.52769165 170.9389978 218.52769165 170.9389978 218.87475586 172.27954102 C222.94579258 189.23019183 224.37345133 206.23812243 224.25 223.625 C224.24662628 224.55705261 224.24325256 225.48910522 224.23977661 226.44940186 C223.99200312 273.94590871 208.97588059 320.6274711 179.8125 358.4375 C179.08289063 359.3965625 178.35328125 360.355625 177.6015625 361.34375 C172.95559139 367.29353119 167.98276875 372.93980628 162.8125 378.4375 C162.2880127 378.99598633 161.76352539 379.55447266 161.22314453 380.12988281 C151.84970158 390.02777003 141.89151755 398.50981186 130.8125 406.4375 C130.21566406 406.87368652 129.61882812 407.30987305 129.00390625 407.75927734 C106.83552175 423.87659771 81.07874092 435.0034584 54.625 441.8125 C53.74900146 442.03929443 52.87300293 442.26608887 51.97045898 442.49975586 C35.01980817 446.57079258 18.01187757 447.99845133 0.625 447.875 C-0.77307892 447.86993942 -0.77307892 447.86993942 -2.19940186 447.86477661 C-49.69590871 447.61700312 -96.3774711 432.60088059 -134.1875 403.4375 C-135.1465625 402.70789063 -136.105625 401.97828125 -137.09375 401.2265625 C-143.04353119 396.58059139 -148.68980628 391.60776875 -154.1875 386.4375 C-155.02522949 385.65076904 -155.02522949 385.65076904 -155.87988281 384.84814453 C-165.77777003 375.47470158 -174.25981186 365.51651755 -182.1875 354.4375 C-182.62368652 353.84066406 -183.05987305 353.24382812 -183.50927734 352.62890625 C-199.62659771 330.46052175 -210.7534584 304.70374092 -217.5625 278.25 C-217.78929443 277.37400146 -218.01608887 276.49800293 -218.24975586 275.59545898 C-222.32079258 258.64480817 -223.74845133 241.63687757 -223.625 224.25 C-223.62162628 223.31794739 -223.61825256 222.38589478 -223.61477661 221.42559814 C-223.36700312 173.92909129 -208.35088059 127.2475289 -179.1875 89.4375 C-178.45789063 88.4784375 -177.72828125 87.519375 -176.9765625 86.53125 C-172.33059139 80.58146881 -167.35776875 74.93519372 -162.1875 69.4375 C-161.6630127 68.87901367 -161.13852539 68.32052734 -160.59814453 67.74511719 C-151.22470158 57.84722997 -141.26651755 49.36518814 -130.1875 41.4375 C-129.29224609 40.78322021 -129.29224609 40.78322021 -128.37890625 40.11572266 C-106.21052175 23.99840229 -80.45374092 12.8715416 -54 6.0625 C-53.12400146 5.83570557 -52.24800293 5.60891113 -51.34545898 5.37524414 C-34.39480817 1.30420742 -17.38687757 -0.12345133 0 0 Z " fill="#000000" transform="translate(223.1875,-0.4375)"/>
<path d="M0 0 C2.8455204 3.40833646 5.18211602 6.83466984 7.36328125 10.69921875 C8.31098389 12.36936035 8.31098389 12.36936035 9.27783203 14.07324219 C9.6089801 14.6614978 9.94012817 15.24975342 10.28131104 15.85583496 C11.69401158 18.36516574 13.11650093 20.86890297 14.53820801 23.37313843 C15.27366346 24.66893019 16.00860393 25.96501438 16.74304199 27.26138306 C20.33957739 33.60869644 23.97657821 39.93237612 27.625 46.25 C28.54986206 47.85234497 28.54986206 47.85234497 29.4934082 49.48706055 C34.21600537 57.66085801 38.97085792 65.81559708 43.7331543 73.96630859 C49.8994513 84.52647084 56.00505039 95.12142546 62.10888672 105.71777344 C65.23680148 111.14659942 68.36858448 116.57319281 71.5 122 C72.75001879 124.16665583 74.00001878 126.3333225 75.25 128.5 C75.86875 129.5725 76.4875 130.645 77.125 131.75 C82.75 141.5 82.75 141.5 84.62548828 144.75097656 C85.87371034 146.91447476 87.12208239 149.07788643 88.37060547 151.24121094 C91.52405256 156.70565017 94.67476096 162.17163645 97.8203125 167.640625 C104.51761651 179.27765088 111.25306717 190.88760208 118.14111328 202.41308594 C118.65013184 203.26805664 119.15915039 204.12302734 119.68359375 205.00390625 C120.13275146 205.75486572 120.58190918 206.5058252 121.04467773 207.27954102 C122 209 122 209 122 210 C41.81 210 -38.38 210 -121 210 C-119.45460244 206.13650609 -117.88793449 202.87579302 -115.83203125 199.30078125 C-115.19378418 198.18735352 -114.55553711 197.07392578 -113.89794922 195.92675781 C-113.20289367 194.72195086 -112.5077414 193.51719971 -111.8125 192.3125 C-111.09105251 191.05711328 -110.36986506 189.80157708 -109.64892578 188.54589844 C-107.7949706 185.31879708 -105.93698535 182.09403586 -104.07781982 178.86993408 C-103.05233129 177.09079075 -102.02805128 175.31095951 -101.00439453 173.53076172 C-93.80235022 161.00602858 -86.55546289 148.50822286 -79.2668457 136.03369141 C-73.1005487 125.47352916 -66.99494961 114.87857454 -60.89111328 104.28222656 C-57.76319852 98.85340058 -54.63141552 93.42680719 -51.5 88 C-50.24998121 85.83334417 -48.99998122 83.6666775 -47.75 81.5 C-44 75 -44 75 -40.25 68.5 C-39.63108887 67.42717773 -39.01217773 66.35435547 -38.37451172 65.24902344 C-37.12628966 63.08552524 -35.87791761 60.92211357 -34.62939453 58.75878906 C-31.47594744 53.29434983 -28.32523904 47.82836355 -25.1796875 42.359375 C-19.04089825 31.69144324 -12.87714476 21.03949303 -6.625 10.4375 C-6.07118652 9.49680664 -5.51737305 8.55611328 -4.94677734 7.58691406 C-4.44098145 6.73194336 -3.93518555 5.87697266 -3.4140625 4.99609375 C-2.9701416 4.24513428 -2.5262207 3.4941748 -2.06884766 2.72045898 C-1 1 -1 1 0 0 Z " fill="#FEFEFE" transform="translate(221,98)"/>
</svg>
